<svg width="30" height="30" viewBox="0 0 30 30" fill="none" xmlns="http://www.w3.org/2000/svg">
<path d="M29.6953 9.92343C29.4234 9.71718 29.0015 9.78047 28.5445 9.96562C27.7289 10.2984 26.8101 11.025 26.4469 11.3156C24.8344 12.6141 23.4539 14.2617 22.432 16.0734C22.4953 15.4148 22.5234 14.8219 22.4906 14.3789C22.3687 12.8039 22.05 11.1375 21.1195 9.82265C20.4047 8.81484 19.357 8.15859 18.1758 7.82578C17.9297 7.75547 17.7234 7.7789 17.5125 7.92422C17.4398 7.97578 17.3601 8.06484 17.325 8.14922C17.2711 8.27812 17.264 8.58515 17.2969 8.72578C17.339 8.90859 17.4375 9.01875 17.6226 9.075L17.7398 9.1125C19.2984 9.63047 20.2711 10.6477 20.7328 12.2602C21.0351 13.3195 21.0961 14.4352 21.0515 15.5297C21 16.7906 20.8265 18.1617 20.6601 19.2516C20.4609 19.0312 20.25 18.8227 20.0133 18.6375C19.6242 18.3328 19.1765 18.0773 18.7242 17.8828C18.3375 17.7164 17.925 17.55 17.4984 17.4187C16.739 17.1797 15.9398 17.0484 15.1804 17.2148C14.9109 17.2734 14.4633 17.6672 15.2015 18.1711C16.3945 18.9773 17.55 19.9734 18.375 21.1594C18.907 21.9234 19.3031 22.7695 19.6125 23.6461C19.793 24.1523 19.9476 24.6703 20.0953 25.1883C20.2945 25.8797 20.393 27.5578 20.393 27.5578C20.393 27.5578 20.3929 27.5602 20.3953 27.5602C20.3953 27.7477 20.4047 27.9234 20.5289 28.118C20.6836 28.357 20.9437 28.5914 21.2344 28.6383C21.9164 28.7437 22.4508 28.3594 22.5398 27.6914C22.8234 25.5656 23.2289 23.4469 23.8945 21.4055C24.2156 20.4164 24.593 19.425 25.0125 18.4734C25.6588 17.0129 26.3978 15.5952 27.225 14.2289C27.893 13.1203 28.5773 12.0234 29.3883 11.018C29.6203 10.7273 30.1008 10.2281 29.6953 9.92343Z" fill="#757F3F"/>
<path d="M11.7234 4.87968C11.5453 4.8164 11.1773 4.70859 10.8117 4.66874C10.4038 4.62421 9.99838 4.66171 9.86713 4.93124C9.64447 5.39062 9.74057 5.88984 9.8765 6.36327C10.2632 7.71562 11.4538 8.76796 12.8976 8.24062C13.1859 8.13515 13.3288 7.82577 13.4249 7.54687C13.821 6.40546 12.7288 5.2453 11.7234 4.87968ZM9.59291 9.0914C9.80619 8.86874 9.79447 8.5289 9.75932 8.23593C9.60932 7.03359 8.11635 6.47577 7.05228 6.59765C6.86478 6.61874 6.48744 6.68671 6.14057 6.81093C5.75619 6.95155 5.40932 7.16484 5.41166 7.46718C5.41635 7.97812 5.72338 8.38124 6.05619 8.74687C7.00072 9.78749 8.53353 10.2023 9.59291 9.0914ZM6.44057 11.2523C6.56478 10.9687 6.44057 10.6523 6.30697 10.3898C5.75853 9.30937 4.16478 9.29296 3.20385 9.76874C3.0351 9.85312 2.70228 10.0453 2.41869 10.2797C2.10463 10.5422 1.8515 10.8609 1.95697 11.1422C2.1351 11.6203 2.56166 11.8969 2.9976 12.1266C4.23978 12.7875 5.82182 12.6562 6.44057 11.2523ZM4.03119 13.418C3.12885 12.6094 1.63822 13.1719 0.914003 13.9641C0.78744 14.1047 0.546034 14.4047 0.367909 14.7258C0.16869 15.0844 0.0491589 15.4734 0.248378 15.6984C0.588221 16.0781 1.0851 16.1812 1.57728 16.2398C2.97182 16.4016 4.4015 15.7078 4.46713 14.1726C4.48353 13.8633 4.2515 13.6148 4.03119 13.418ZM3.37494 16.9547C3.11244 16.793 2.78197 16.8773 2.50307 16.9734C1.35932 17.3719 1.12728 18.9492 1.46947 19.9641C1.53041 20.1422 1.67572 20.4984 1.87025 20.8102C2.09057 21.157 2.36947 21.45 2.66478 21.3844C3.16166 21.2719 3.49213 20.8852 3.78041 20.4844C4.59838 19.343 4.68275 17.7562 3.37494 16.9547ZM6.52494 14.2359C6.24135 14.1047 5.92494 14.2266 5.6601 14.3578C4.57025 14.8875 4.52807 16.4812 4.98978 17.4492C5.06947 17.618 5.25697 17.9531 5.48666 18.2414C5.74682 18.5602 6.05853 18.818 6.34213 18.7195C6.8226 18.5484 7.10385 18.1266 7.34525 17.6953C8.0226 16.4625 7.91947 14.8758 6.52494 14.2359ZM8.73275 10.9922C8.43744 10.8937 8.1351 11.0508 7.88666 11.2101C6.86478 11.8617 7.00541 13.4508 7.57025 14.3578C7.66869 14.5172 7.89369 14.8312 8.15619 15.0891C8.44916 15.375 8.789 15.5953 9.06088 15.4641C9.51791 15.2391 9.74994 14.7891 9.93978 14.332C10.4718 13.0336 10.1882 11.4703 8.73275 10.9922ZM12.3562 9.38906C12.082 9.24374 11.7585 9.34921 11.4867 9.46171C10.371 9.93515 10.2421 11.5242 10.6499 12.5133C10.7226 12.6891 10.8913 13.0336 11.107 13.3336C11.3484 13.6641 11.646 13.9406 11.9367 13.8562C12.4265 13.7109 12.7312 13.3055 12.9913 12.8859C13.7296 11.6906 13.7132 10.1016 12.3562 9.38906ZM16.296 12.293C17.3109 11.3226 17.6906 9.78046 16.5562 8.74687C16.3265 8.53827 15.9867 8.55937 15.696 8.60156C14.496 8.77734 13.9757 10.2844 14.121 11.3461C14.1468 11.5336 14.2218 11.9086 14.3554 12.2531C14.5054 12.6351 14.7257 12.975 15.0257 12.968C15.5413 12.9469 15.9374 12.6305 16.296 12.293ZM16.6523 7.55859C16.9499 7.4789 17.1163 7.18124 17.2359 6.91171C17.7328 5.80312 16.7367 4.55624 15.764 4.11093C15.5929 4.03124 15.2343 3.8953 14.8734 3.82499C14.4703 3.7453 14.0648 3.74999 13.9124 4.01015C13.6523 4.45077 13.7062 4.95468 13.8023 5.43984C14.0742 6.81562 15.1734 7.96405 16.6523 7.55859Z" fill="#FCC21B"/>
</svg>
